<svg id="visual" viewBox="0 0 900 600" width="900" height="600" xmlns="http://www.w3.org/2000/svg" xmlns:xlink="http://www.w3.org/1999/xlink" version="1.1"><rect x="0" y="0" width="900" height="600" fill="#000000"></rect><defs><linearGradient id="grad1_0" x1="33.3%" y1="0%" x2="100%" y2="100%"><stop offset="20%" stop-color="#000000" stop-opacity="1"></stop><stop offset="80%" stop-color="#000000" stop-opacity="1"></stop></linearGradient></defs><defs><linearGradient id="grad2_0" x1="0%" y1="0%" x2="66.7%" y2="100%"><stop offset="20%" stop-color="#000000" stop-opacity="1"></stop><stop offset="80%" stop-color="#000000" stop-opacity="1"></stop></linearGradient></defs><g transform="translate(900, 0)"><path d="M0 378.6C-48.9 361.3 -97.9 344.1 -130.5 315C-163.1 286 -179.5 245.3 -218.5 218.5C-257.5 191.7 -319.3 179 -349.8 144.9C-380.2 110.8 -379.4 55.4 -378.6 0L0 0Z" fill="#6CE5E8"></path></g><g transform="translate(0, 600)"><path d="M0 -378.6C54.9 -375.1 109.7 -371.6 140.8 -340C171.9 -308.4 179.2 -248.7 215.7 -215.7C252.1 -182.7 317.8 -176.4 349.8 -144.9C381.8 -113.4 380.2 -56.7 378.6 0L0 0Z" fill="#6CE5E8"></path></g></svg>